<svg width="213" height="46" viewBox="0 0 213 46" fill="none" xmlns="http://www.w3.org/2000/svg">
<g filter="url(#filter0_d)">
<path d="M28.12 13.8C27.6133 12.8667 26.88 12.16 25.92 11.68C24.9867 11.1733 23.88 10.92 22.6 10.92C20.3867 10.92 18.6133 11.6533 17.28 13.12C15.9467 14.56 15.28 16.4933 15.28 18.92C15.28 21.5067 15.9733 23.5333 17.36 25C18.7733 26.44 20.7067 27.16 23.16 27.16C24.84 27.16 26.2533 26.7333 27.4 25.88C28.5733 25.0267 29.4267 23.8 29.96 22.2H21.28V17.16H36.16V23.52C35.6533 25.2267 34.7867 26.8133 33.56 28.28C32.36 29.7467 30.8267 30.9333 28.96 31.84C27.0933 32.7467 24.9867 33.2 22.64 33.2C19.8667 33.2 17.3867 32.6 15.2 31.4C13.04 30.1733 11.3467 28.48 10.12 26.32C8.92 24.16 8.32 21.6933 8.32 18.92C8.32 16.1467 8.92 13.68 10.12 11.52C11.3467 9.33333 13.04 7.64 15.2 6.44C17.36 5.21333 19.8267 4.6 22.6 4.6C25.96 4.6 28.7867 5.41333 31.08 7.04C33.4 8.66667 34.9333 10.92 35.68 13.8H28.12ZM54.6688 33L48.8288 22.4H47.1888V33H40.3487V4.92H51.8287C54.0421 4.92 55.9221 5.30667 57.4688 6.08C59.0421 6.85333 60.2154 7.92 60.9887 9.28C61.7621 10.6133 62.1488 12.1067 62.1488 13.76C62.1488 15.6267 61.6154 17.2933 60.5488 18.76C59.5087 20.2267 57.9621 21.2667 55.9088 21.88L62.3888 33H54.6688ZM47.1888 17.56H51.4288C52.6821 17.56 53.6154 17.2533 54.2287 16.64C54.8688 16.0267 55.1888 15.16 55.1888 14.04C55.1888 12.9733 54.8688 12.1333 54.2287 11.52C53.6154 10.9067 52.6821 10.6 51.4288 10.6H47.1888V17.56ZM80.1225 33.28C77.4825 33.28 75.0558 32.6667 72.8425 31.44C70.6558 30.2133 68.9092 28.5067 67.6025 26.32C66.3225 24.1067 65.6825 21.6267 65.6825 18.88C65.6825 16.1333 66.3225 13.6667 67.6025 11.48C68.9092 9.29333 70.6558 7.58667 72.8425 6.36C75.0558 5.13333 77.4825 4.52 80.1225 4.52C82.7625 4.52 85.1758 5.13333 87.3625 6.36C89.5758 7.58667 91.3092 9.29333 92.5625 11.48C93.8425 13.6667 94.4825 16.1333 94.4825 18.88C94.4825 21.6267 93.8425 24.1067 92.5625 26.32C91.2825 28.5067 89.5492 30.2133 87.3625 31.44C85.1758 32.6667 82.7625 33.28 80.1225 33.28ZM80.1225 27.04C82.3625 27.04 84.1492 26.2933 85.4825 24.8C86.8425 23.3067 87.5225 21.3333 87.5225 18.88C87.5225 16.4 86.8425 14.4267 85.4825 12.96C84.1492 11.4667 82.3625 10.72 80.1225 10.72C77.8558 10.72 76.0425 11.4533 74.6825 12.92C73.3492 14.3867 72.6825 16.3733 72.6825 18.88C72.6825 21.36 73.3492 23.3467 74.6825 24.84C76.0425 26.3067 77.8558 27.04 80.1225 27.04ZM130.488 4.92V33H123.648V16.16L117.368 33H111.848L105.528 16.12V33H98.6878V4.92H106.768L114.648 24.36L122.448 4.92H130.488ZM149.087 33.28C146.447 33.28 144.02 32.6667 141.807 31.44C139.62 30.2133 137.873 28.5067 136.567 26.32C135.287 24.1067 134.647 21.6267 134.647 18.88C134.647 16.1333 135.287 13.6667 136.567 11.48C137.873 9.29333 139.62 7.58667 141.807 6.36C144.02 5.13333 146.447 4.52 149.087 4.52C151.727 4.52 154.14 5.13333 156.327 6.36C158.54 7.58667 160.273 9.29333 161.527 11.48C162.807 13.6667 163.447 16.1333 163.447 18.88C163.447 21.6267 162.807 24.1067 161.527 26.32C160.247 28.5067 158.513 30.2133 156.327 31.44C154.14 32.6667 151.727 33.28 149.087 33.28ZM149.087 27.04C151.327 27.04 153.113 26.2933 154.447 24.8C155.807 23.3067 156.487 21.3333 156.487 18.88C156.487 16.4 155.807 14.4267 154.447 12.96C153.113 11.4667 151.327 10.72 149.087 10.72C146.82 10.72 145.007 11.4533 143.647 12.92C142.313 14.3867 141.647 16.3733 141.647 18.88C141.647 21.36 142.313 23.3467 143.647 24.84C145.007 26.3067 146.82 27.04 149.087 27.04ZM192.772 33H185.932L174.492 15.68V33H167.652V4.92H174.492L185.932 22.32V4.92H192.772V33ZM204.97 4.92V33H198.13V4.92H204.97Z" fill="white"/>
</g>
<defs>
<filter id="filter0_d" x="0.319946" y="0.52002" width="212.65" height="44.76" filterUnits="userSpaceOnUse" color-interpolation-filters="sRGB">
<feFlood flood-opacity="0" result="BackgroundImageFix"/>
<feColorMatrix in="SourceAlpha" type="matrix" values="0 0 0 0 0 0 0 0 0 0 0 0 0 0 0 0 0 0 127 0"/>
<feOffset dy="4"/>
<feGaussianBlur stdDeviation="4"/>
<feColorMatrix type="matrix" values="0 0 0 0 0 0 0 0 0 0 0 0 0 0 0 0 0 0 0.25 0"/>
<feBlend mode="normal" in2="BackgroundImageFix" result="effect1_dropShadow"/>
<feBlend mode="normal" in="SourceGraphic" in2="effect1_dropShadow" result="shape"/>
</filter>
</defs>
</svg>
